<mxfile host="Electron" modified="2024-03-11T20:05:25.587Z" agent="Mozilla/5.0 (Windows NT 10.0; Win64; x64) AppleWebKit/537.36 (KHTML, like Gecko) draw.io/24.0.4 Chrome/120.0.6099.109 Electron/28.1.0 Safari/537.36" etag="f1nHTz_YNTrmM8VVo6X5" version="24.0.4" type="device">
  <diagram name="Page-1" id="9f46799a-70d6-7492-0946-bef42562c5a5">
    <mxGraphModel dx="1436" dy="1818" grid="1" gridSize="10" guides="1" tooltips="1" connect="1" arrows="1" fold="1" page="1" pageScale="1" pageWidth="1100" pageHeight="850" background="none" math="0" shadow="0">
      <root>
        <mxCell id="0" />
        <mxCell id="1" parent="0" />
        <mxCell id="AvTWC_V5O1hLxJitqv5g-30" style="edgeStyle=orthogonalEdgeStyle;rounded=0;orthogonalLoop=1;jettySize=auto;html=1;entryX=0.5;entryY=1;entryDx=0;entryDy=0;entryPerimeter=0;endArrow=block;endFill=0;endSize=17;" parent="1" source="AvTWC_V5O1hLxJitqv5g-9" target="AvTWC_V5O1hLxJitqv5g-24" edge="1">
          <mxGeometry relative="1" as="geometry">
            <mxPoint x="550" y="210" as="targetPoint" />
          </mxGeometry>
        </mxCell>
        <mxCell id="AvTWC_V5O1hLxJitqv5g-9" value="User" style="swimlane;fontStyle=1;align=center;verticalAlign=top;childLayout=stackLayout;horizontal=1;startSize=26;horizontalStack=0;resizeParent=1;resizeParentMax=0;resizeLast=0;collapsible=1;marginBottom=0;whiteSpace=wrap;html=1;" parent="1" vertex="1">
          <mxGeometry x="470" y="300" width="160" height="330" as="geometry" />
        </mxCell>
        <mxCell id="AvTWC_V5O1hLxJitqv5g-10" value="+ username: string&lt;br&gt;- password: string&lt;br&gt;- foreName: string&lt;br&gt;- surname: string&lt;br&gt;- emailAddress: string&lt;br&gt;- phoneNumber: string&lt;div&gt;- userType: string&lt;/div&gt;&lt;div&gt;- blocked:string&amp;nbsp;&lt;/div&gt;&lt;div&gt;- failedLoginAttempts: int&lt;/div&gt;&lt;div&gt;- sessionID: int&lt;/div&gt;" style="text;strokeColor=none;fillColor=none;align=left;verticalAlign=top;spacingLeft=4;spacingRight=4;overflow=hidden;rotatable=0;points=[[0,0.5],[1,0.5]];portConstraint=eastwest;whiteSpace=wrap;html=1;" parent="AvTWC_V5O1hLxJitqv5g-9" vertex="1">
          <mxGeometry y="26" width="160" height="154" as="geometry" />
        </mxCell>
        <mxCell id="AvTWC_V5O1hLxJitqv5g-11" value="" style="line;strokeWidth=1;fillColor=none;align=left;verticalAlign=middle;spacingTop=-1;spacingLeft=3;spacingRight=3;rotatable=0;labelPosition=right;points=[];portConstraint=eastwest;strokeColor=inherit;" parent="AvTWC_V5O1hLxJitqv5g-9" vertex="1">
          <mxGeometry y="180" width="160" height="8" as="geometry" />
        </mxCell>
        <mxCell id="AvTWC_V5O1hLxJitqv5g-12" value="+ registerUser()&lt;br&gt;+ login()&lt;br&gt;+ createTask()&lt;br&gt;+ viewTasks()&lt;div&gt;+ viewAccountDetails()&lt;/div&gt;&lt;div&gt;+ changeAccountDetails()&lt;/div&gt;&lt;div&gt;+ changeUsername()&lt;/div&gt;&lt;div&gt;+ changePassword()&lt;/div&gt;&lt;div&gt;+ deleteAccount()&lt;/div&gt;" style="text;strokeColor=none;fillColor=none;align=left;verticalAlign=top;spacingLeft=4;spacingRight=4;overflow=hidden;rotatable=0;points=[[0,0.5],[1,0.5]];portConstraint=eastwest;whiteSpace=wrap;html=1;" parent="AvTWC_V5O1hLxJitqv5g-9" vertex="1">
          <mxGeometry y="188" width="160" height="142" as="geometry" />
        </mxCell>
        <mxCell id="AvTWC_V5O1hLxJitqv5g-13" value="Administrator" style="swimlane;fontStyle=1;align=center;verticalAlign=top;childLayout=stackLayout;horizontal=1;startSize=26;horizontalStack=0;resizeParent=1;resizeParentMax=0;resizeLast=0;collapsible=1;marginBottom=0;whiteSpace=wrap;html=1;" parent="1" vertex="1">
          <mxGeometry x="470" y="700" width="200" height="300" as="geometry" />
        </mxCell>
        <mxCell id="AvTWC_V5O1hLxJitqv5g-14" value="+ username: string&lt;br&gt;- password: string&lt;br&gt;- foreName: string&lt;br&gt;- surName: string&lt;br&gt;- emailAddress: string&lt;br&gt;- userID: int&lt;br&gt;- phoneNumber: string" style="text;strokeColor=none;fillColor=none;align=left;verticalAlign=top;spacingLeft=4;spacingRight=4;overflow=hidden;rotatable=0;points=[[0,0.5],[1,0.5]];portConstraint=eastwest;whiteSpace=wrap;html=1;" parent="AvTWC_V5O1hLxJitqv5g-13" vertex="1">
          <mxGeometry y="26" width="200" height="114" as="geometry" />
        </mxCell>
        <mxCell id="AvTWC_V5O1hLxJitqv5g-15" value="" style="line;strokeWidth=1;fillColor=none;align=left;verticalAlign=middle;spacingTop=-1;spacingLeft=3;spacingRight=3;rotatable=0;labelPosition=right;points=[];portConstraint=eastwest;strokeColor=inherit;" parent="AvTWC_V5O1hLxJitqv5g-13" vertex="1">
          <mxGeometry y="140" width="200" height="8" as="geometry" />
        </mxCell>
        <mxCell id="AvTWC_V5O1hLxJitqv5g-16" value="+ updateTasks()&lt;br&gt;+ deleteTasks()&lt;div&gt;+ changeUserPassword()&lt;/div&gt;&lt;div&gt;+ blockUser()&lt;/div&gt;&lt;div&gt;+ unblockUser()&lt;/div&gt;&lt;div&gt;+ deleteUser()&lt;/div&gt;&lt;div&gt;+ viewUsers()&lt;/div&gt;&lt;div&gt;+ changeUserType()&lt;/div&gt;&lt;div&gt;+ resetTaskManagementSystem()&lt;/div&gt;&lt;div&gt;+ setUpTaskManagementSystem()&lt;/div&gt;" style="text;strokeColor=none;fillColor=none;align=left;verticalAlign=top;spacingLeft=4;spacingRight=4;overflow=hidden;rotatable=0;points=[[0,0.5],[1,0.5]];portConstraint=eastwest;whiteSpace=wrap;html=1;" parent="AvTWC_V5O1hLxJitqv5g-13" vertex="1">
          <mxGeometry y="148" width="200" height="152" as="geometry" />
        </mxCell>
        <mxCell id="AvTWC_V5O1hLxJitqv5g-40" style="edgeStyle=orthogonalEdgeStyle;rounded=0;orthogonalLoop=1;jettySize=auto;html=1;exitX=0.75;exitY=0;exitDx=0;exitDy=0;entryX=0.25;entryY=0;entryDx=0;entryDy=0;endArrow=diamondThin;endFill=1;endSize=22;" parent="1" source="AvTWC_V5O1hLxJitqv5g-17" target="AvTWC_V5O1hLxJitqv5g-9" edge="1">
          <mxGeometry relative="1" as="geometry">
            <Array as="points">
              <mxPoint x="130" y="250" />
              <mxPoint x="510" y="250" />
            </Array>
          </mxGeometry>
        </mxCell>
        <mxCell id="AvTWC_V5O1hLxJitqv5g-17" value="Tasks" style="swimlane;fontStyle=1;align=center;verticalAlign=top;childLayout=stackLayout;horizontal=1;startSize=26;horizontalStack=0;resizeParent=1;resizeParentMax=0;resizeLast=0;collapsible=1;marginBottom=0;whiteSpace=wrap;html=1;" parent="1" vertex="1">
          <mxGeometry x="10" y="300" width="160" height="240" as="geometry" />
        </mxCell>
        <mxCell id="AvTWC_V5O1hLxJitqv5g-18" value="+ title: string&lt;br&gt;+ description: string&lt;br&gt;+ dueDate: date&lt;br&gt;+ priority: string&lt;br&gt;+ status: string&lt;br&gt;+ taskID: integer&lt;br&gt;+ project: string" style="text;strokeColor=none;fillColor=none;align=left;verticalAlign=top;spacingLeft=4;spacingRight=4;overflow=hidden;rotatable=0;points=[[0,0.5],[1,0.5]];portConstraint=eastwest;whiteSpace=wrap;html=1;" parent="AvTWC_V5O1hLxJitqv5g-17" vertex="1">
          <mxGeometry y="26" width="160" height="114" as="geometry" />
        </mxCell>
        <mxCell id="AvTWC_V5O1hLxJitqv5g-19" value="" style="line;strokeWidth=1;fillColor=none;align=left;verticalAlign=middle;spacingTop=-1;spacingLeft=3;spacingRight=3;rotatable=0;labelPosition=right;points=[];portConstraint=eastwest;strokeColor=inherit;" parent="AvTWC_V5O1hLxJitqv5g-17" vertex="1">
          <mxGeometry y="140" width="160" height="8" as="geometry" />
        </mxCell>
        <mxCell id="AvTWC_V5O1hLxJitqv5g-20" value="+ createTask()&lt;br&gt;+ viewTask()&lt;br&gt;+ updateTask()&lt;br&gt;+ deleteTask()&lt;br&gt;+ assignToProject()" style="text;strokeColor=none;fillColor=none;align=left;verticalAlign=top;spacingLeft=4;spacingRight=4;overflow=hidden;rotatable=0;points=[[0,0.5],[1,0.5]];portConstraint=eastwest;whiteSpace=wrap;html=1;" parent="AvTWC_V5O1hLxJitqv5g-17" vertex="1">
          <mxGeometry y="148" width="160" height="92" as="geometry" />
        </mxCell>
        <mxCell id="AvTWC_V5O1hLxJitqv5g-21" value="Task Management System" style="swimlane;fontStyle=1;align=center;verticalAlign=top;childLayout=stackLayout;horizontal=1;startSize=26;horizontalStack=0;resizeParent=1;resizeParentMax=0;resizeLast=0;collapsible=1;marginBottom=0;whiteSpace=wrap;html=1;" parent="1" vertex="1">
          <mxGeometry x="395" y="-60" width="310" height="270" as="geometry" />
        </mxCell>
        <mxCell id="AvTWC_V5O1hLxJitqv5g-22" value="+ tasks: database:&lt;br&gt;+ users: database&lt;br&gt;+ projects: database" style="text;strokeColor=none;fillColor=none;align=left;verticalAlign=top;spacingLeft=4;spacingRight=4;overflow=hidden;rotatable=0;points=[[0,0.5],[1,0.5]];portConstraint=eastwest;whiteSpace=wrap;html=1;" parent="AvTWC_V5O1hLxJitqv5g-21" vertex="1">
          <mxGeometry y="26" width="310" height="54" as="geometry" />
        </mxCell>
        <mxCell id="AvTWC_V5O1hLxJitqv5g-23" value="" style="line;strokeWidth=1;fillColor=none;align=left;verticalAlign=middle;spacingTop=-1;spacingLeft=3;spacingRight=3;rotatable=0;labelPosition=right;points=[];portConstraint=eastwest;strokeColor=inherit;" parent="AvTWC_V5O1hLxJitqv5g-21" vertex="1">
          <mxGeometry y="80" width="310" height="8" as="geometry" />
        </mxCell>
        <mxCell id="AvTWC_V5O1hLxJitqv5g-24" value="+ authenticateUser()&lt;br&gt;+ createUser()&lt;br&gt;+ login()&lt;br&gt;+ manageDatabases()&lt;br&gt;+ accessDatabases()&lt;div&gt;+ initialSetup()&lt;/div&gt;&lt;div&gt;+ blockUserIf PasswordIncorrect&amp;gt;=3times()&lt;/div&gt;&lt;div&gt;+ emailUserIfPasswordChanged&lt;span style=&quot;background-color: initial;&quot;&gt;ByAdministrator()&lt;/span&gt;&lt;/div&gt;&lt;div&gt;+ emailRootUserPasswordOnSetup()&lt;/div&gt;&lt;div&gt;+ verifyPasswordRequirements()&lt;/div&gt;&lt;div&gt;+ commitChangesToDatabase()&lt;/div&gt;&lt;div&gt;&lt;br&gt;&lt;/div&gt;" style="text;strokeColor=none;fillColor=none;align=left;verticalAlign=top;spacingLeft=4;spacingRight=4;overflow=hidden;rotatable=0;points=[[0,0.5],[1,0.5]];portConstraint=eastwest;whiteSpace=wrap;html=1;" parent="AvTWC_V5O1hLxJitqv5g-21" vertex="1">
          <mxGeometry y="88" width="310" height="182" as="geometry" />
        </mxCell>
        <mxCell id="AvTWC_V5O1hLxJitqv5g-25" value="Projects" style="swimlane;fontStyle=1;align=center;verticalAlign=top;childLayout=stackLayout;horizontal=1;startSize=26;horizontalStack=0;resizeParent=1;resizeParentMax=0;resizeLast=0;collapsible=1;marginBottom=0;whiteSpace=wrap;html=1;" parent="1" vertex="1">
          <mxGeometry x="220" y="300" width="160" height="190" as="geometry" />
        </mxCell>
        <mxCell id="AvTWC_V5O1hLxJitqv5g-26" value="+ projectTitle: string&lt;br&gt;+ projectID: integer:&lt;br&gt;+ tasks: list&lt;br&gt;+ projectDescription: string" style="text;strokeColor=none;fillColor=none;align=left;verticalAlign=top;spacingLeft=4;spacingRight=4;overflow=hidden;rotatable=0;points=[[0,0.5],[1,0.5]];portConstraint=eastwest;whiteSpace=wrap;html=1;" parent="AvTWC_V5O1hLxJitqv5g-25" vertex="1">
          <mxGeometry y="26" width="160" height="74" as="geometry" />
        </mxCell>
        <mxCell id="AvTWC_V5O1hLxJitqv5g-27" value="" style="line;strokeWidth=1;fillColor=none;align=left;verticalAlign=middle;spacingTop=-1;spacingLeft=3;spacingRight=3;rotatable=0;labelPosition=right;points=[];portConstraint=eastwest;strokeColor=inherit;" parent="AvTWC_V5O1hLxJitqv5g-25" vertex="1">
          <mxGeometry y="100" width="160" height="8" as="geometry" />
        </mxCell>
        <mxCell id="AvTWC_V5O1hLxJitqv5g-28" value="+ assignTasks()&lt;br&gt;+ createProject()&lt;br&gt;+ updateProject()&lt;br&gt;+ viewProject()&lt;br&gt;+ deleteProject()" style="text;strokeColor=none;fillColor=none;align=left;verticalAlign=top;spacingLeft=4;spacingRight=4;overflow=hidden;rotatable=0;points=[[0,0.5],[1,0.5]];portConstraint=eastwest;whiteSpace=wrap;html=1;" parent="AvTWC_V5O1hLxJitqv5g-25" vertex="1">
          <mxGeometry y="108" width="160" height="82" as="geometry" />
        </mxCell>
        <mxCell id="AvTWC_V5O1hLxJitqv5g-31" style="edgeStyle=orthogonalEdgeStyle;rounded=0;orthogonalLoop=1;jettySize=auto;html=1;endArrow=block;endFill=0;endSize=17;exitX=0.5;exitY=0;exitDx=0;exitDy=0;entryX=0.505;entryY=1.001;entryDx=0;entryDy=0;entryPerimeter=0;" parent="1" edge="1" target="AvTWC_V5O1hLxJitqv5g-12" source="AvTWC_V5O1hLxJitqv5g-13">
          <mxGeometry relative="1" as="geometry">
            <mxPoint x="550" y="660" as="targetPoint" />
            <mxPoint x="550" y="639" as="sourcePoint" />
            <Array as="points">
              <mxPoint x="551" y="700" />
            </Array>
          </mxGeometry>
        </mxCell>
        <mxCell id="AvTWC_V5O1hLxJitqv5g-36" style="edgeStyle=orthogonalEdgeStyle;rounded=0;orthogonalLoop=1;jettySize=auto;html=1;entryX=-0.004;entryY=0.308;entryDx=0;entryDy=0;entryPerimeter=0;endArrow=diamondThin;endFill=1;endSize=22;" parent="1" source="AvTWC_V5O1hLxJitqv5g-26" target="AvTWC_V5O1hLxJitqv5g-14" edge="1">
          <mxGeometry relative="1" as="geometry">
            <Array as="points">
              <mxPoint x="380" y="460" />
              <mxPoint x="425" y="460" />
              <mxPoint x="425" y="761" />
            </Array>
          </mxGeometry>
        </mxCell>
        <mxCell id="AvTWC_V5O1hLxJitqv5g-37" style="edgeStyle=orthogonalEdgeStyle;rounded=0;orthogonalLoop=1;jettySize=auto;html=1;entryX=-0.001;entryY=0.046;entryDx=0;entryDy=0;entryPerimeter=0;endSize=22;endArrow=diamondThin;endFill=1;" parent="1" source="AvTWC_V5O1hLxJitqv5g-17" target="AvTWC_V5O1hLxJitqv5g-16" edge="1">
          <mxGeometry relative="1" as="geometry" />
        </mxCell>
        <mxCell id="AvTWC_V5O1hLxJitqv5g-38" style="edgeStyle=orthogonalEdgeStyle;rounded=0;orthogonalLoop=1;jettySize=auto;html=1;entryX=0;entryY=0.146;entryDx=0;entryDy=0;entryPerimeter=0;endArrow=diamondThin;endFill=1;endSize=22;" parent="1" source="AvTWC_V5O1hLxJitqv5g-17" target="AvTWC_V5O1hLxJitqv5g-28" edge="1">
          <mxGeometry relative="1" as="geometry" />
        </mxCell>
        <mxCell id="AvTWC_V5O1hLxJitqv5g-39" style="edgeStyle=orthogonalEdgeStyle;rounded=0;orthogonalLoop=1;jettySize=auto;html=1;entryX=-0.001;entryY=0.326;entryDx=0;entryDy=0;entryPerimeter=0;endArrow=diamondThin;endFill=1;endSize=22;" parent="1" source="AvTWC_V5O1hLxJitqv5g-26" target="AvTWC_V5O1hLxJitqv5g-10" edge="1">
          <mxGeometry relative="1" as="geometry">
            <Array as="points">
              <mxPoint x="400" y="376" />
              <mxPoint x="400" y="376" />
            </Array>
          </mxGeometry>
        </mxCell>
        <mxCell id="AvTWC_V5O1hLxJitqv5g-41" style="edgeStyle=orthogonalEdgeStyle;rounded=0;orthogonalLoop=1;jettySize=auto;html=1;entryX=0.014;entryY=0.771;entryDx=0;entryDy=0;entryPerimeter=0;endArrow=diamondThin;endFill=1;endSize=22;" parent="1" source="AvTWC_V5O1hLxJitqv5g-17" target="AvTWC_V5O1hLxJitqv5g-22" edge="1">
          <mxGeometry relative="1" as="geometry" />
        </mxCell>
        <mxCell id="AvTWC_V5O1hLxJitqv5g-42" style="edgeStyle=orthogonalEdgeStyle;rounded=0;orthogonalLoop=1;jettySize=auto;html=1;exitX=0.25;exitY=0;exitDx=0;exitDy=0;entryX=-0.015;entryY=0.395;entryDx=0;entryDy=0;entryPerimeter=0;endArrow=blockThin;endFill=0;endSize=22;" parent="1" source="AvTWC_V5O1hLxJitqv5g-17" target="AvTWC_V5O1hLxJitqv5g-22" edge="1">
          <mxGeometry relative="1" as="geometry" />
        </mxCell>
        <mxCell id="AvTWC_V5O1hLxJitqv5g-43" style="edgeStyle=orthogonalEdgeStyle;rounded=0;orthogonalLoop=1;jettySize=auto;html=1;exitX=0.25;exitY=0;exitDx=0;exitDy=0;entryX=-0.008;entryY=0.338;entryDx=0;entryDy=0;entryPerimeter=0;endArrow=blockThin;endFill=0;endSize=22;jumpStyle=arc;" parent="1" source="AvTWC_V5O1hLxJitqv5g-25" target="AvTWC_V5O1hLxJitqv5g-24" edge="1">
          <mxGeometry relative="1" as="geometry" />
        </mxCell>
        <mxCell id="AvTWC_V5O1hLxJitqv5g-44" style="edgeStyle=orthogonalEdgeStyle;rounded=0;orthogonalLoop=1;jettySize=auto;html=1;exitX=0.75;exitY=0;exitDx=0;exitDy=0;entryX=-0.008;entryY=0.822;entryDx=0;entryDy=0;entryPerimeter=0;endArrow=diamondThin;endFill=1;endSize=22;jumpStyle=arc;" parent="1" source="AvTWC_V5O1hLxJitqv5g-25" target="AvTWC_V5O1hLxJitqv5g-24" edge="1">
          <mxGeometry relative="1" as="geometry" />
        </mxCell>
        <mxCell id="AvTWC_V5O1hLxJitqv5g-45" value="Task Management System Class Diagram" style="text;html=1;strokeColor=none;fillColor=none;align=center;verticalAlign=middle;whiteSpace=wrap;rounded=0;fontSize=17;" parent="1" vertex="1">
          <mxGeometry x="385" y="-120" width="320" height="30" as="geometry" />
        </mxCell>
      </root>
    </mxGraphModel>
  </diagram>
</mxfile>
